<!DOCTYPE svg PUBLIC "-//W3C//DTD SVG 1.1//EN" "http://www.w3.org/Graphics/SVG/1.1/DTD/svg11.dtd">
<!-- Uploaded to: SVG Repo, www.svgrepo.com, Transformed by: SVG Repo Mixer Tools -->
<svg fill="#6b7280" width="800px" height="800px" viewBox="0 0 64 64" data-name="Layer 1" id="Layer_1" xmlns="http://www.w3.org/2000/svg">
<g id="SVGRepo_bgCarrier" stroke-width="0"/>
<g id="SVGRepo_tracerCarrier" stroke-linecap="round" stroke-linejoin="round"/>
<g id="SVGRepo_iconCarrier">
<title/>
<path d="M54.82,54.15H9.18a2,2,0,0,1-2-2V40.56a2,2,0,0,1,2-2H22a2,2,0,0,1,2,2v2.25H40V40.56a2,2,0,0,1,2-2H54.82a2,2,0,0,1,2,2V52.15A2,2,0,0,1,54.82,54.15Zm-43.64-4H52.82V42.56H44v2.25a2,2,0,0,1-2,2H22a2,2,0,0,1-2-2V42.56H11.18Z"/>
<path d="M42,46.81H22a2,2,0,0,1-2-2V42.56H9.18a2,2,0,0,1-2-2.34l5-28.71a2,2,0,0,1,2-1.66h6.41a2,2,0,0,1,0,4H15.86l-4.3,24.71H22a2,2,0,0,1,2,2v2.25H40V40.56a2,2,0,0,1,2-2h10.4l-4.3-24.71H30.28a2,2,0,0,1,0-4H49.82a2,2,0,0,1,2,1.66l5,28.71a2,2,0,0,1-2,2.34H44v2.25A2,2,0,0,1,42,46.81Z"/>
<path d="M32,39a2,2,0,0,1-1.41-.59l-6-6a2,2,0,0,1,2.83-2.83L32,34.14l4.61-4.61a2,2,0,0,1,2.83,2.83l-6,6A2,2,0,0,1,32,39Z"/>
<path d="M32,39a2,2,0,0,1-2-2V20.39a2,2,0,0,1,4,0V37A2,2,0,0,1,32,39Z"/>
</g>
</svg>